# xmcd
#
# Track frame offsets:
#	150
#	21094
#	37997
#	62063
#	80479
#	101549
#	118954
#	137545
#	154686
#	173716
#	195868
#	218702
#	239394
#	258031
#
# Disc length: 3639 seconds
#
# Revision: 1
# Processed by: cddbd v1.4PL0 Copyright (c) Steve Scherf et al.
# Submitted via: MusicManager 7.0.3.0 
#
DISCID=ae0e350e
DTITLE=Faith Hill - Cry
DYEAR=2002
DGENRE=Country
TTITLE0=Free
TTITLE1=Cry
TTITLE2=One
TTITLE3=When The Lights Go Down
TTITLE4=Beautiful
TTITLE5=Unsavable
TTITLE6=Baby You Belong
TTITLE7=If You're Gonna Fly Away
TTITLE8=Stronger
TTITLE9=If This Is The End
TTITLE10=This Is Me
TTITLE11=Back To You
TTITLE12=I Think I Will
TTITLE13=You're Still Here
EXTD=
EXTT0=
EXTT1=
EXTT2=
EXTT3=
EXTT4=
EXTT5=
EXTT6=
EXTT7=
EXTT8=
EXTT9=
EXTT10=
EXTT11=
EXTT12=
EXTT13=
PLAYORDER=
